<svg width="49" height="49" viewBox="0 0 49 49" fill="none" xmlns="http://www.w3.org/2000/svg">
<path opacity="0.4" d="M24.8309 44.0211C35.8572 44.0211 44.7957 35.0826 44.7957 24.0563C44.7957 13.0301 35.8572 4.09154 24.8309 4.09154C13.8047 4.09154 4.86615 13.0301 4.86615 24.0563C4.86615 35.0826 13.8047 44.0211 24.8309 44.0211Z" fill="white"/>
<path d="M18.2026 23.8766L21.4968 24.6953L19.6002 32.3617C19.161 34.1585 20.0394 34.7575 21.5567 33.6994L31.8985 26.532C33.1563 25.6535 32.9765 24.6353 31.4792 24.256L28.185 23.4375L30.0817 15.7709C30.5209 13.9741 29.6424 13.3752 28.1251 14.4333L17.7834 21.6008C16.5256 22.4792 16.7053 23.4973 18.2026 23.8766Z" fill="white"/>
</svg>
